<svg width="144" height="16" viewBox="0 0 144 16" fill="none" xmlns="http://www.w3.org/2000/svg">
<path d="M8 0C3.58065 0 0 3.58065 0 8C0 12.4194 3.58065 16 8 16C12.4194 16 16 12.4194 16 8C16 3.58065 12.4194 0 8 0Z" fill="#FAA500"/>
<path d="M40 0C35.5806 0 32 3.58065 32 8C32 12.4194 35.5806 16 40 16C44.4194 16 48 12.4194 48 8C48 3.58065 44.4194 0 40 0ZM40 14.4516C36.4355 14.4516 33.5484 11.5645 33.5484 8C33.5484 4.43548 36.4355 1.54839 40 1.54839C43.5645 1.54839 46.4516 4.43548 46.4516 8C46.4516 11.5645 43.5645 14.4516 40 14.4516Z" fill="#FAA500"/>
<path d="M72 0C67.5806 0 64 3.58065 64 8C64 12.4194 67.5806 16 72 16C76.4194 16 80 12.4194 80 8C80 3.58065 76.4194 0 72 0ZM72 14.4516C68.4355 14.4516 65.5484 11.5645 65.5484 8C65.5484 4.43548 68.4355 1.54839 72 1.54839C75.5645 1.54839 78.4516 4.43548 78.4516 8C78.4516 11.5645 75.5645 14.4516 72 14.4516Z" fill="#FAA500"/>
<path d="M104 0C99.5806 0 96 3.58065 96 8C96 12.4194 99.5806 16 104 16C108.419 16 112 12.4194 112 8C112 3.58065 108.419 0 104 0ZM104 14.4516C100.435 14.4516 97.5484 11.5645 97.5484 8C97.5484 4.43548 100.435 1.54839 104 1.54839C107.565 1.54839 110.452 4.43548 110.452 8C110.452 11.5645 107.565 14.4516 104 14.4516Z" fill="#FAA500"/>
<path d="M136 0C131.581 0 128 3.58065 128 8C128 12.4194 131.581 16 136 16C140.419 16 144 12.4194 144 8C144 3.58065 140.419 0 136 0ZM136 14.4516C132.435 14.4516 129.548 11.5645 129.548 8C129.548 4.43548 132.435 1.54839 136 1.54839C139.565 1.54839 142.452 4.43548 142.452 8C142.452 11.5645 139.565 14.4516 136 14.4516Z" fill="#FAA500"/>
</svg>
